<mxfile host="65bd71144e">
    <diagram id="SiFrdgIGyTg3QnItvjv6" name="Page-1">
        <mxGraphModel dx="764" dy="568" grid="1" gridSize="10" guides="1" tooltips="1" connect="1" arrows="1" fold="1" page="1" pageScale="1" pageWidth="827" pageHeight="1169" math="0" shadow="0">
            <root>
                <mxCell id="0"/>
                <mxCell id="1" parent="0"/>
                <mxCell id="64" style="edgeStyle=none;html=1;exitX=0.5;exitY=1;exitDx=0;exitDy=0;fontSize=12;" parent="1" source="2" target="3" edge="1">
                    <mxGeometry relative="1" as="geometry"/>
                </mxCell>
                <mxCell id="3" value="Vous êtes connecté &lt;br&gt;à un moniteur" style="rhombus;whiteSpace=wrap;html=1;rounded=1;" parent="1" vertex="1">
                    <mxGeometry x="371" y="110" width="140" height="140" as="geometry"/>
                </mxCell>
                <mxCell id="63" style="edgeStyle=none;html=1;exitX=0.5;exitY=0;exitDx=0;exitDy=0;fontSize=12;entryX=0.971;entryY=0.429;entryDx=0;entryDy=0;entryPerimeter=0;" parent="1" source="4" target="2" edge="1">
                    <mxGeometry relative="1" as="geometry">
                        <mxPoint x="520" y="40" as="targetPoint"/>
                        <Array as="points">
                            <mxPoint x="740" y="40"/>
                        </Array>
                    </mxGeometry>
                </mxCell>
                <mxCell id="4" value="Les câbles du motineur ont administré une dose qui vous a causé une intoxication" style="rounded=1;whiteSpace=wrap;html=1;" parent="1" vertex="1">
                    <mxGeometry x="670" y="150" width="140" height="70" as="geometry"/>
                </mxCell>
                <mxCell id="10" value="&lt;h1 style=&quot;line-height: 100%;&quot;&gt;&lt;font color=&quot;#ffffff&quot; style=&quot;font-size: 17px;&quot;&gt;Un système Sentinel&lt;/font&gt;&lt;/h1&gt;&lt;p style=&quot;line-height: 100%; font-size: 14px;&quot; class=&quot;MsoNormal&quot;&gt;&lt;span style=&quot;&quot; lang=&quot;FR-CA&quot;&gt;&lt;font color=&quot;#ffffff&quot; style=&quot;font-size: 14px;&quot;&gt;&lt;b style=&quot;&quot;&gt;Genre&amp;nbsp;:&lt;/b&gt;&lt;br&gt;Science-fiction et dystopie&lt;/font&gt;&lt;/span&gt;&lt;/p&gt;&lt;p style=&quot;line-height: 100%; font-size: 14px;&quot; class=&quot;MsoNormal&quot;&gt;&lt;span lang=&quot;FR-CA&quot;&gt;&lt;font color=&quot;#ffffff&quot; style=&quot;font-size: 14px;&quot;&gt;&lt;b&gt;Inspiration&amp;nbsp;:&lt;/b&gt;&lt;br&gt;La machine s’arrête de E.M.Forster.&lt;/font&gt;&lt;/span&gt;&lt;/p&gt;&lt;p style=&quot;line-height: 100%; font-size: 14px;&quot; class=&quot;MsoNormal&quot;&gt;&lt;span lang=&quot;FR-CA&quot;&gt;&lt;font color=&quot;#ffffff&quot; style=&quot;font-size: 14px;&quot;&gt;&lt;b&gt;Nom&amp;nbsp;: &lt;/b&gt;Un&lt;br&gt;système Sentinel&lt;/font&gt;&lt;/span&gt;&lt;/p&gt;&lt;p style=&quot;margin: 0cm; vertical-align: baseline; line-height: 100%; font-size: 14px;&quot; class=&quot;paragraph&quot;&gt;&lt;font color=&quot;#ffffff&quot; style=&quot;font-size: 14px;&quot;&gt;&lt;span class=&quot;normaltextrun&quot;&gt;&lt;span lang=&quot;FR-CA&quot;&gt;&lt;b&gt;Couleur de fond du site &lt;/b&gt;: #74C69D&lt;/span&gt;&lt;/span&gt;&lt;span lang=&quot;FR-CA&quot;&gt;&lt;/span&gt;&lt;/font&gt;&lt;/p&gt;&lt;p style=&quot;line-height: 100%; font-size: 14px;&quot; class=&quot;paragraph&quot;&gt;&lt;span data-contrast=&quot;auto&quot;&gt;&lt;font color=&quot;#ffffff&quot; style=&quot;font-size: 14px;&quot;&gt;&lt;b&gt;&lt;span class=&quot;normaltextrun&quot;&gt;&lt;span lang=&quot;FR-CA&quot;&gt;Couleur de fond du&amp;nbsp;&lt;/span&gt;&lt;/span&gt;&lt;span&gt;&lt;/span&gt;&lt;span class=&quot;spellingerror&quot;&gt;&lt;span lang=&quot;FR-CA&quot;&gt;contenu&lt;/span&gt;&lt;/span&gt;&lt;span&gt;&lt;/span&gt;&lt;/b&gt;&lt;span class=&quot;normaltextrun&quot;&gt;&lt;span lang=&quot;FR-CA&quot;&gt;&lt;b&gt;&amp;nbsp;:&lt;/b&gt; #1B4332&lt;/span&gt;&lt;/span&gt;&lt;span lang=&quot;FR-CA&quot;&gt;&lt;/span&gt;&lt;/font&gt;&lt;/span&gt;&lt;/p&gt;&lt;p style=&quot;line-height: 100%; font-size: 14px;&quot; class=&quot;paragraph&quot;&gt;&lt;span data-contrast=&quot;auto&quot;&gt;&lt;span&gt;&lt;font color=&quot;#ffffff&quot; style=&quot;font-size: 14px;&quot;&gt;&lt;span class=&quot;normaltextrun&quot;&gt;&lt;span lang=&quot;FR-CA&quot;&gt;&lt;b&gt;Couleur de la police&lt;br&gt;&lt;/b&gt;: #B7E4C7&lt;/span&gt;&lt;/span&gt;&lt;span lang=&quot;FR-CA&quot;&gt;&lt;/span&gt;&lt;/font&gt;&lt;/span&gt;&lt;/span&gt;&lt;/p&gt;&lt;p style=&quot;line-height: 100%; font-size: 14px;&quot; class=&quot;paragraph&quot;&gt;&lt;span data-contrast=&quot;auto&quot;&gt;&lt;font color=&quot;#ffffff&quot; style=&quot;font-size: 14px;&quot;&gt;&lt;span class=&quot;normaltextrun&quot;&gt;&lt;span lang=&quot;FR-CA&quot;&gt;&lt;b&gt;Couleur de fond des&lt;br&gt;boutons :&lt;/b&gt; #D8F3DC&lt;/span&gt;&lt;/span&gt;&lt;span lang=&quot;FR-CA&quot;&gt;&lt;/span&gt;&lt;/font&gt;&lt;/span&gt;&lt;/p&gt;&lt;p style=&quot;line-height: 100%; font-size: 14px;&quot; class=&quot;paragraph&quot;&gt;&lt;font color=&quot;#ffffff&quot; style=&quot;font-size: 14px;&quot;&gt;&lt;span data-contrast=&quot;auto&quot;&gt;&lt;span&gt;&lt;b&gt;&lt;span class=&quot;normaltextrun&quot;&gt;&lt;span lang=&quot;FR-CA&quot;&gt;Couleur de fond des&lt;br&gt;boutons&amp;nbsp;&lt;/span&gt;&lt;/span&gt;&lt;span&gt;&lt;/span&gt;&lt;span class=&quot;spellingerror&quot;&gt;&lt;span lang=&quot;FR-CA&quot;&gt;en&lt;/span&gt;&lt;/span&gt;&lt;span&gt;&lt;/span&gt;&lt;span class=&quot;normaltextrun&quot;&gt;&lt;span lang=&quot;FR-CA&quot;&gt;&amp;nbsp;&lt;/span&gt;&lt;i&gt;&lt;/i&gt;&lt;/span&gt;&lt;i&gt;&lt;span style=&quot;user-select: text; -webkit-user-drag: none; -webkit-tap-highlight-color: transparent;&quot; data-contrast=&quot;auto&quot;&gt;&lt;span&gt;hover&amp;nbsp;&lt;/span&gt;&lt;/span&gt;&lt;/i&gt;&lt;/b&gt;&lt;/span&gt;&lt;span style=&quot;user-select: text; -webkit-user-drag: none; -webkit-tap-highlight-color: transparent;&quot; data-contrast=&quot;auto&quot;&gt;&lt;span&gt;: #95D5B2&lt;/span&gt;&lt;/span&gt;&lt;span class=&quot;eop&quot;&gt;&lt;span lang=&quot;FR-CA&quot;&gt;&amp;nbsp;&lt;/span&gt;&lt;/span&gt;&lt;/span&gt;&lt;span lang=&quot;FR-CA&quot;&gt;&lt;/span&gt;&lt;/font&gt;&lt;/p&gt;&lt;p style=&quot;line-height: 100%; font-size: 14px;&quot; class=&quot;paragraph&quot;&gt;&lt;span data-contrast=&quot;auto&quot;&gt;&lt;span class=&quot;normaltextrun&quot;&gt;&lt;span lang=&quot;FR-CA&quot;&gt;&lt;font color=&quot;#ffffff&quot; style=&quot;font-size: 14px;&quot;&gt;&lt;b&gt;Couleur de la police&lt;br&gt;des boutons :&lt;/b&gt; #2D6A4F&lt;/font&gt;&lt;/span&gt;&lt;/span&gt;&lt;/span&gt;&lt;/p&gt;&lt;p style=&quot;line-height: 100%; font-size: 14px;&quot; class=&quot;paragraph&quot;&gt;&lt;font color=&quot;#ffffff&quot; style=&quot;font-size: 14px;&quot;&gt;&lt;span style=&quot;user-select: text; -webkit-user-drag: none; -webkit-tap-highlight-color: transparent; font-variant-ligatures: none !important;&quot; data-contrast=&quot;auto&quot;&gt;&lt;span&gt;&lt;span class=&quot;normaltextrun&quot;&gt;&lt;span lang=&quot;FR-CA&quot;&gt;&lt;b&gt;Couleur de la police&lt;br&gt;des boutons&amp;nbsp;&lt;/b&gt;&lt;/span&gt;&lt;/span&gt;&lt;/span&gt;&lt;/span&gt;&lt;span style=&quot;user-select: text; -webkit-user-drag: none; -webkit-tap-highlight-color: transparent; font-variant-ligatures: none !important;&quot; data-contrast=&quot;auto&quot;&gt;&lt;b style=&quot;&quot;&gt;&lt;span style=&quot;&quot; class=&quot;spellingerror&quot;&gt;&lt;span lang=&quot;FR-CA&quot;&gt;en&lt;/span&gt;&lt;/span&gt;&lt;span style=&quot;&quot; class=&quot;normaltextrun&quot;&gt;&lt;span lang=&quot;FR-CA&quot;&gt;&amp;nbsp;&lt;/span&gt;&lt;i&gt;&lt;/i&gt;&lt;/span&gt;&lt;i style=&quot;&quot;&gt;&lt;span style=&quot;user-select: text; -webkit-user-drag: none; -webkit-tap-highlight-color: transparent;&quot; data-contrast=&quot;auto&quot;&gt;&lt;span&gt;hover&lt;/span&gt;&lt;/span&gt;&lt;/i&gt;&lt;/b&gt;&lt;span style=&quot;user-select: text; -webkit-user-drag: none; -webkit-tap-highlight-color: transparent;&quot; data-contrast=&quot;auto&quot;&gt;&lt;b&gt;: &lt;/b&gt;#081C15&lt;/span&gt;&lt;span style=&quot;&quot; class=&quot;eop&quot;&gt;&lt;span style=&quot;&quot; lang=&quot;FR-CA&quot;&gt;&amp;nbsp;&lt;/span&gt;&lt;/span&gt;&lt;/span&gt;&lt;/font&gt;&lt;/p&gt;" style="text;html=1;spacing=5;spacingTop=-20;whiteSpace=wrap;overflow=hidden;rounded=0;labelBackgroundColor=none;" parent="1" vertex="1">
                    <mxGeometry x="10" y="10" width="260" height="540" as="geometry"/>
                </mxCell>
                <mxCell id="11" value="&lt;span style=&quot;font-weight: 400;&quot;&gt;En explorant la chambre où vous vous trouvez, vous découvrez un couloir&lt;/span&gt;" style="rounded=1;whiteSpace=wrap;html=1;fontStyle=1" parent="1" vertex="1">
                    <mxGeometry x="367" y="280" width="146" height="70" as="geometry"/>
                </mxCell>
                <mxCell id="13" value="Il s'agissait des agents de sécurité, ils vous ont assommé" style="rounded=1;whiteSpace=wrap;html=1;" parent="1" vertex="1">
                    <mxGeometry x="670" y="425" width="140" height="70" as="geometry"/>
                </mxCell>
                <mxCell id="15" value="Vous entendez &lt;br&gt;des voix&amp;nbsp;à proximité du couloir" style="rhombus;whiteSpace=wrap;html=1;rounded=1;" parent="1" vertex="1">
                    <mxGeometry x="370" y="390" width="140" height="140" as="geometry"/>
                </mxCell>
                <mxCell id="16" value="A ce stade, vous trouvez une porte déverouillé" style="rounded=1;whiteSpace=wrap;html=1;" parent="1" vertex="1">
                    <mxGeometry x="368" y="560" width="146" height="70" as="geometry"/>
                </mxCell>
                <mxCell id="17" value="Vous&amp;nbsp;découvrez&lt;br&gt;&amp;nbsp;un&amp;nbsp;masque à oxygène" style="rhombus;rounded=1;whiteSpace=wrap;html=1;labelBorderColor=none;labelBackgroundColor=none;" parent="1" vertex="1">
                    <mxGeometry x="371" y="660" width="140" height="140" as="geometry"/>
                </mxCell>
                <mxCell id="22" value="Vous détachez les câbles" style="endArrow=classic;html=1;exitX=0.5;exitY=1;exitDx=0;exitDy=0;" parent="1" source="3" target="11" edge="1">
                    <mxGeometry width="50" height="50" relative="1" as="geometry">
                        <mxPoint x="590" y="350" as="sourcePoint"/>
                        <mxPoint x="640" y="300" as="targetPoint"/>
                    </mxGeometry>
                </mxCell>
                <mxCell id="24" value="" style="endArrow=classic;html=1;entryX=0.5;entryY=0;entryDx=0;entryDy=0;exitX=0.5;exitY=1;exitDx=0;exitDy=0;" parent="1" source="11" target="15" edge="1">
                    <mxGeometry width="50" height="50" relative="1" as="geometry">
                        <mxPoint x="310" y="420" as="sourcePoint"/>
                        <mxPoint x="360" y="370" as="targetPoint"/>
                    </mxGeometry>
                </mxCell>
                <mxCell id="25" value="Suivre le trajet" style="endArrow=classic;html=1;entryX=0.5;entryY=0;entryDx=0;entryDy=0;" parent="1" source="15" target="16" edge="1">
                    <mxGeometry width="50" height="50" relative="1" as="geometry">
                        <mxPoint x="360" y="490" as="sourcePoint"/>
                        <mxPoint x="410" y="440" as="targetPoint"/>
                    </mxGeometry>
                </mxCell>
                <mxCell id="26" value="" style="endArrow=classic;html=1;exitX=0.5;exitY=1;exitDx=0;exitDy=0;entryX=0.5;entryY=0;entryDx=0;entryDy=0;" parent="1" source="16" target="17" edge="1">
                    <mxGeometry width="50" height="50" relative="1" as="geometry">
                        <mxPoint x="270" y="630" as="sourcePoint"/>
                        <mxPoint x="320" y="580" as="targetPoint"/>
                    </mxGeometry>
                </mxCell>
                <mxCell id="27" value="Prendre le masque" style="endArrow=classic;html=1;exitX=0.5;exitY=1;exitDx=0;exitDy=0;entryX=0.5;entryY=0;entryDx=0;entryDy=0;" parent="1" source="17" target="50" edge="1">
                    <mxGeometry width="50" height="50" relative="1" as="geometry">
                        <mxPoint x="260" y="780" as="sourcePoint"/>
                        <mxPoint x="440" y="800" as="targetPoint"/>
                    </mxGeometry>
                </mxCell>
                <mxCell id="29" value="Vous vous rendormez" style="endArrow=classic;html=1;" parent="1" edge="1">
                    <mxGeometry width="50" height="50" relative="1" as="geometry">
                        <mxPoint x="510" y="180" as="sourcePoint"/>
                        <mxPoint x="670" y="180" as="targetPoint"/>
                        <Array as="points">
                            <mxPoint x="560" y="180"/>
                        </Array>
                    </mxGeometry>
                </mxCell>
                <mxCell id="31" value="Suivre les voix&amp;nbsp;&lt;br&gt;étranges" style="endArrow=classic;html=1;entryX=0;entryY=0.5;entryDx=0;entryDy=0;exitX=1;exitY=0.5;exitDx=0;exitDy=0;" parent="1" source="15" target="13" edge="1">
                    <mxGeometry y="10" width="50" height="50" relative="1" as="geometry">
                        <mxPoint x="530" y="450" as="sourcePoint"/>
                        <mxPoint x="570" y="460" as="targetPoint"/>
                        <mxPoint as="offset"/>
                    </mxGeometry>
                </mxCell>
                <mxCell id="34" value="Avancez sans porter de masque" style="endArrow=classic;html=1;exitX=1;exitY=0.5;exitDx=0;exitDy=0;entryX=0.5;entryY=0;entryDx=0;entryDy=0;edgeStyle=orthogonalEdgeStyle;" parent="1" source="17" target="53" edge="1">
                    <mxGeometry x="0.233" y="10" width="50" height="50" relative="1" as="geometry">
                        <mxPoint x="530" y="760" as="sourcePoint"/>
                        <mxPoint x="580" y="695" as="targetPoint"/>
                        <mxPoint as="offset"/>
                    </mxGeometry>
                </mxCell>
                <mxCell id="52" style="edgeStyle=none;html=1;entryX=0.5;entryY=0;entryDx=0;entryDy=0;" parent="1" source="50" target="55" edge="1">
                    <mxGeometry relative="1" as="geometry">
                        <mxPoint x="440" y="910" as="targetPoint"/>
                    </mxGeometry>
                </mxCell>
                <mxCell id="50" value="Vous êtes protégé et vous continuez votre chemin" style="rounded=0;whiteSpace=wrap;html=1;labelBackgroundColor=none;labelBorderColor=none;" parent="1" vertex="1">
                    <mxGeometry x="373" y="830" width="140" height="70" as="geometry"/>
                </mxCell>
                <mxCell id="65" style="edgeStyle=none;html=1;exitX=0.5;exitY=1;exitDx=0;exitDy=0;fontSize=12;" parent="1" source="53" edge="1">
                    <mxGeometry relative="1" as="geometry">
                        <mxPoint x="510" y="955" as="targetPoint"/>
                        <Array as="points">
                            <mxPoint x="740" y="955"/>
                        </Array>
                    </mxGeometry>
                </mxCell>
                <mxCell id="53" value="Mieux vaut ne rien toucher" style="rounded=1;whiteSpace=wrap;html=1;labelBackgroundColor=none;labelBorderColor=none;" parent="1" vertex="1">
                    <mxGeometry x="670" y="850" width="140" height="70" as="geometry"/>
                </mxCell>
                <mxCell id="61" style="edgeStyle=none;html=1;entryX=0.5;entryY=0;entryDx=0;entryDy=0;exitX=0.5;exitY=1;exitDx=0;exitDy=0;" parent="1" source="55" target="62" edge="1">
                    <mxGeometry relative="1" as="geometry">
                        <mxPoint x="444" y="1050" as="targetPoint"/>
                        <mxPoint x="440" y="1020" as="sourcePoint"/>
                    </mxGeometry>
                </mxCell>
                <mxCell id="55" value="Vous voyez la lumière du jour et vous dirigez vers celle ci" style="rounded=0;whiteSpace=wrap;html=1;labelBackgroundColor=none;labelBorderColor=none;" parent="1" vertex="1">
                    <mxGeometry x="373" y="920" width="140" height="70" as="geometry"/>
                </mxCell>
                <mxCell id="58" value="Oui" style="edgeStyle=none;html=1;entryX=0.5;entryY=0;entryDx=0;entryDy=0;exitX=0;exitY=0.5;exitDx=0;exitDy=0;" parent="1" source="62" edge="1">
                    <mxGeometry relative="1" as="geometry">
                        <mxPoint x="426" y="1112" as="sourcePoint"/>
                        <Array as="points">
                            <mxPoint x="330" y="1060"/>
                        </Array>
                        <mxPoint x="330" y="1090" as="targetPoint"/>
                    </mxGeometry>
                </mxCell>
                <mxCell id="60" value="Non" style="edgeStyle=none;html=1;exitX=1;exitY=0.5;exitDx=0;exitDy=0;entryX=0.5;entryY=0;entryDx=0;entryDy=0;" parent="1" source="62" edge="1">
                    <mxGeometry relative="1" as="geometry">
                        <mxPoint x="464.55940712407346" y="1109.4405928759263" as="sourcePoint"/>
                        <mxPoint x="550" y="1090" as="targetPoint"/>
                        <Array as="points">
                            <mxPoint x="550" y="1060"/>
                        </Array>
                    </mxGeometry>
                </mxCell>
                <mxCell id="62" value="Si vous avez un masque" style="whiteSpace=wrap;html=1;aspect=fixed;labelBackgroundColor=none;labelBorderColor=none;" parent="1" vertex="1">
                    <mxGeometry x="404.5" y="1020" width="77" height="77" as="geometry"/>
                </mxCell>
                <mxCell id="2" value="Réveil dans votre chambre" style="rounded=1;whiteSpace=wrap;html=1;" parent="1" vertex="1">
                    <mxGeometry x="370" y="10" width="140" height="70" as="geometry"/>
                </mxCell>
                <mxCell id="66" value="Vous sortez sain et sauf" style="rounded=1;whiteSpace=wrap;html=1;fontSize=12;" parent="1" vertex="1">
                    <mxGeometry x="270" y="1090" width="120" height="60" as="geometry"/>
                </mxCell>
                <mxCell id="67" value="avant d'arriver a destination vous vous empoisonnez" style="rounded=1;whiteSpace=wrap;html=1;" parent="1" vertex="1">
                    <mxGeometry x="500" y="1090" width="120" height="60" as="geometry"/>
                </mxCell>
            </root>
        </mxGraphModel>
    </diagram>
</mxfile>